<svg width="1680" height="1000" viewBox="0 0 1680 1000" fill="none" xmlns="http://www.w3.org/2000/svg">
<rect width="1680" height="1000" fill="#DCFA96"/>
<path d="M860.161 375H819.839V466.935C819.839 471.452 819.839 473.71 818.96 475.435C818.187 476.953 816.953 478.187 815.435 478.96C813.71 479.839 811.452 479.839 806.936 479.839H715V520.161H718.226C767.908 520.161 792.749 520.161 811.725 510.493C828.417 501.988 841.988 488.417 850.492 471.725C860.161 452.749 860.161 427.908 860.161 378.226V375Z" fill="#3C3737"/>
<path d="M860.161 625H819.839V621.774C819.839 572.092 819.839 547.251 829.507 528.275C838.012 511.583 851.583 498.012 868.275 489.508C887.251 479.839 912.092 479.839 961.774 479.839H965V520.161H873.064C868.548 520.161 866.29 520.161 864.565 521.04C863.047 521.813 861.813 523.047 861.04 524.565C860.161 526.29 860.161 528.548 860.161 533.065V625Z" fill="#3C3737"/>
</svg>
